# xmcd CD database file
#
# Track frame offsets:
#	150
#	12047
#	26015
#	35630
#	47530
#	56640
#	71687
#	86512
#	101122
#	113130
#	129870
#	143952
#
# Disc length: 2113 seconds
#
# Revision: 0
# Processed by: cddbd v1.5.1PL0 Copyright (c) Steve Scherf et al.
# Submitted via: CDex 1.51
#
DISCID=9e083f0c
DTITLE=Patsy Riggir - You'll Never Take The Country Out Of Me
DYEAR=1984
DGENRE=Country
TTITLE0=Blue Forever
TTITLE1=When I'm Close To You
TTITLE2=Down In Dallas
TTITLE3=Dark Moon
TTITLE4=Bet You My Heart I Love You
TTITLE5=Too Far Gone
TTITLE6=You'll Never Take The Country Out Of Me
TTITLE7=In The Shelter Of Your Eyes
TTITLE8=Please Help Me I'm Falling
TTITLE9=Cheaters
TTITLE10=Would You Be That Someone
TTITLE11=Laying It On The Line
EXTD=YEAR: 1984
EXTT0=
EXTT1=
EXTT2=
EXTT3=
EXTT4=
EXTT5=
EXTT6=
EXTT7=
EXTT8=
EXTT9=
EXTT10=
EXTT11=
PLAYORDER=
